<svg xmlns="http://www.w3.org/2000/svg" width="127.6" height="29" viewBox="0 0 127.6 29"><defs><style>.a{fill:#fff;}.b{fill:#0acadc;}</style></defs><g transform="translate(-30.435 -30.435)"><g transform="translate(30.435 30.435)"><path class="a" d="M72.446,0,84.114,14.217l3.831,4.669L96.133,29h-6.5L80.809,18.244,71.982,29H65.217L77.5,14.217,65.836,0Z" transform="translate(-30.417)"/><path class="a" d="M147.1,0V23.2h15.95V29H141.3l.106-29Z" transform="translate(-65.904)"/><path class="a" d="M17.4,0,29,29H23.2L14.5,7.25,5.8,29H0L11.6,0Z"/><path class="a" d="M211.6,21.739v5.8h-15.95v-5.8Z" transform="translate(-91.252 -10.139)"/><path class="a" d="M218.852,43.478v5.8h-23.2v-5.8Z" transform="translate(-91.252 -20.278)"/><path class="a" d="M218.852,0V5.8h-23.2V0Z" transform="translate(-91.252)"/></g><path class="b" d="M135.511,39.135h-7.25l6.95-8.7h6.61Z" transform="translate(-45.626 0)"/></g></svg>