<svg xmlns="http://www.w3.org/2000/svg" width="17" height="17" viewBox="0 0 17 17"><defs><style>.a{opacity:0.4;}.b{fill:none;}.c{fill:#343d56;}</style></defs><g class="a"><path class="b" d="M0,0H17V17H0ZM0,0H17V17H0ZM0,0H17V17H0ZM0,0H17V17H0Z"/><path class="c" d="M8.792,5.833a3.543,3.543,0,0,1,3.542,3.542,3.438,3.438,0,0,1-.255,1.3l2.068,2.068a8.371,8.371,0,0,0,2.43-3.365A8.377,8.377,0,0,0,8.785,4.063a8.249,8.249,0,0,0-2.819.5L7.5,6.088A3.438,3.438,0,0,1,8.792,5.833ZM1.708,3.9,3.323,5.515l.326.326A8.361,8.361,0,0,0,1,9.375a8.374,8.374,0,0,0,10.894,4.717l.3.3,2.075,2.068.9-.9L2.608,3ZM5.625,7.817l1.1,1.1a2,2,0,0,0-.057.46A2.122,2.122,0,0,0,8.792,11.5a2,2,0,0,0,.46-.057l1.1,1.1A3.519,3.519,0,0,1,5.625,7.817Zm3.053-.552L10.91,9.5l.014-.113A2.122,2.122,0,0,0,8.8,7.257Z" transform="translate(-0.292 -0.875)"/></g></svg>