<svg xmlns="http://www.w3.org/2000/svg" xmlns:xlink="http://www.w3.org/1999/xlink" width="16" height="16" viewBox="0 0 16 16"><defs><style>.a{fill:#fff;stroke:#707070;}.b{clip-path:url(#a);}.c{fill-rule:evenodd;}</style><clipPath id="a"><circle class="a" cx="8" cy="8" r="8" transform="translate(735 71)"/></clipPath></defs><g class="b" transform="translate(-735 -71)"><path class="c" d="M107.708,129.508a2.187,2.187,0,1,0,2.2,2.187A2.173,2.173,0,0,0,107.708,129.508ZM114,133.116a.765.765,0,1,1-.765-.765A.765.765,0,0,1,114,133.116Zm-2.228.62h-1.2v-5.43h1.2Zm-6.305,0h-1.531l-.255-.765h-1.9l-.255.765H100l2.187-5.43h1.13Zm2.241-3.072a1.032,1.032,0,1,1-.988,1.031A1.008,1.008,0,0,1,107.708,130.663Zm-4.392,1.177-.565-1.822-.565,1.822h1.13Z" transform="translate(636 -51.694)"/></g></svg>