<svg xmlns="http://www.w3.org/2000/svg" xmlns:xlink="http://www.w3.org/1999/xlink" width="16" height="16" viewBox="0 0 16 16"><defs><style>.a{fill:#fff;stroke:#616162;}.b{clip-path:url(#a);}.c{fill:#4285f4;}.d{fill:#34a853;}.e{fill:#fbbc05;}.f{fill:#eb4335;}</style><clipPath id="a"><circle class="a" cx="8" cy="8" r="8" transform="translate(538 43)"/></clipPath></defs><g class="b" transform="translate(-538 -43)"><path class="c" d="M136.428,108.013a5.247,5.247,0,0,0-.129-1.252H130.55v2.272h3.374a2.992,2.992,0,0,1-1.252,1.986l-.011.076,1.818,1.408.126.013a5.986,5.986,0,0,0,1.823-4.5" transform="translate(415.572 -56.999)"/><path class="d" d="M19.394,161.282a5.835,5.835,0,0,0,4.054-1.483l-1.932-1.5a3.624,3.624,0,0,1-2.122.612,3.686,3.686,0,0,1-3.483-2.544l-.072.006-1.89,1.463-.025.069a6.118,6.118,0,0,0,5.469,3.374" transform="translate(526.728 -104.281)"/><path class="e" d="M2.639,75.3a3.769,3.769,0,0,1-.2-1.211,3.961,3.961,0,0,1,.2-1.211l0-.081L.716,71.312l-.063.03a6.11,6.11,0,0,0,0,5.5L2.639,75.3" transform="translate(540 -23.212)"/><path class="f" d="M19.394,2.367a3.393,3.393,0,0,1,2.367.912L23.49,1.592A5.882,5.882,0,0,0,19.394,0a6.118,6.118,0,0,0-5.469,3.374L15.9,4.912a3.7,3.7,0,0,1,3.49-2.544" transform="translate(526.728 44.755)"/></g></svg>