<svg xmlns="http://www.w3.org/2000/svg" xmlns:xlink="http://www.w3.org/1999/xlink" width="16" height="16" viewBox="0 0 16 16"><defs><style>.a{fill:#fff;stroke:red;}.b{clip-path:url(#a);}.c{fill:url(#b);}.d{fill:url(#c);}.e{fill:url(#d);}.f{fill:url(#e);}.g{fill:url(#f);}.h{fill:url(#g);}.i{fill:url(#h);}</style><clipPath id="a"><circle class="a" cx="8" cy="8" r="8" transform="translate(488 15)"/></clipPath><linearGradient id="b" x1="-0.015" y1="0.499" x2="1.414" y2="0.501" gradientUnits="objectBoundingBox"><stop offset="0.309" stop-color="#33bef0"/><stop offset="1" stop-color="#0a85d9"/></linearGradient><linearGradient id="c" x1="-0.007" y1="0.497" x2="0.841" y2="0.508" xlink:href="#b"/><linearGradient id="d" x1="0.555" y1="1.818" x2="0.434" y2="-1.063" gradientUnits="objectBoundingBox"><stop offset="0.404" stop-color="#33bef0"/><stop offset="1" stop-color="#0a85d9"/></linearGradient><linearGradient id="e" x1="-0.727" y1="1.392" x2="1.025" y2="0.118" xlink:href="#b"/><linearGradient id="f" x1="2.714" y1="0.459" x2="-0.776" y2="0.519" gradientUnits="objectBoundingBox"><stop offset="0.246" stop-color="#33bef0"/><stop offset="1" stop-color="#0a85d9"/></linearGradient><linearGradient id="g" x1="2.334" y1="2.976" x2="-0.816" y2="-1.146" gradientUnits="objectBoundingBox"><stop offset="0.415" stop-color="#33bef0"/><stop offset="0.652" stop-color="#1797e0"/><stop offset="0.795" stop-color="#0a85d9"/></linearGradient><linearGradient id="h" x1="-1.634" y1="2.546" x2="0.916" y2="0.023" xlink:href="#b"/></defs><g class="b" transform="translate(-488 -15)"><g transform="translate(486 8)"><ellipse class="c" cx="2.558" cy="2.592" rx="2.558" ry="2.592" transform="translate(3.827 10.852)"/><path class="d" d="M17.714,21.852a3.107,3.107,0,1,0-6.213,0c0,.063.006.124.009.185H8.556a3.426,3.426,0,0,0,.021-.37A3.289,3.289,0,1,0,5.289,25h9.568A3.081,3.081,0,0,0,17.714,21.852Z" transform="translate(0 -6)"/><path class="e" d="M11.78,20.915a3.3,3.3,0,0,0-3.2-2.582,3.238,3.238,0,0,0-1.327.285,2.613,2.613,0,0,0-.135.826,2.576,2.576,0,0,0,2.558,2.592A2.544,2.544,0,0,0,11.78,20.915Z" transform="translate(-3.289 -6)"/><ellipse class="f" cx="4.202" cy="4.259" rx="4.202" ry="4.259" transform="translate(6.751 9)"/><path class="g" d="M15.917,14.739a4.282,4.282,0,0,0,.184,4.7,2.606,2.606,0,0,0-.184-4.7Z" transform="translate(-8.551 -3.689)"/><path class="h" d="M15.34,19.368a4.261,4.261,0,0,0,.761,3.048l.006,0a2.577,2.577,0,0,0,.554-.391c.014-.013.027-.028.041-.042a2.59,2.59,0,0,0,.182-.194c.025-.03.047-.061.071-.092s.058-.08.086-.12A3.332,3.332,0,0,0,15.34,19.368Z" transform="translate(-8.551 -6.665)"/><path class="i" d="M28.6,22.518a3.165,3.165,0,0,0,.406,1.552,4.246,4.246,0,0,0,3.249-4.145,4.344,4.344,0,0,0-.033-.509,3.062,3.062,0,0,0-.515-.047A3.127,3.127,0,0,0,28.6,22.518Z" transform="translate(-17.103 -6.666)"/></g></g></svg>