<svg xmlns="http://www.w3.org/2000/svg" width="16" height="16" viewBox="0 0 16 16"><defs><style>.a{fill:#363f57;fill-rule:evenodd;opacity:1;}</style></defs><path class="a" d="M4.631,0A4.642,4.642,0,0,0,0,4.643v6.714A4.641,4.641,0,0,0,4.631,16h6.738A4.641,4.641,0,0,0,16,11.358V4.643A4.642,4.642,0,0,0,11.369,0Zm0,1.375h6.738a3.242,3.242,0,0,1,3.26,3.268v6.714a3.241,3.241,0,0,1-3.26,3.267H4.631a3.24,3.24,0,0,1-3.259-3.267V4.644A3.241,3.241,0,0,1,4.631,1.375Zm6.7,2.337a.959.959,0,1,1,.959.962A.96.96,0,0,1,11.335,3.713ZM8,3.88A4.12,4.12,0,1,0,12.111,8,4.125,4.125,0,0,0,8,3.88ZM10.738,8A2.738,2.738,0,1,0,8,10.744,2.731,2.731,0,0,0,10.738,8Z"/></svg>