<svg xmlns="http://www.w3.org/2000/svg" width="15.059" height="16" viewBox="0 0 15.059 16"><defs><style>.a{fill:#363f57;fill-rule:evenodd;opacity:0.2;}</style></defs><path class="a" d="M0,1.145A1.129,1.129,0,0,1,1.114,0H13.945a1.129,1.129,0,0,1,1.114,1.145v13.71A1.129,1.129,0,0,1,13.945,16H1.114A1.129,1.129,0,0,1,0,14.855ZM4.712,3.933a1.209,1.209,0,0,0-1.27-1.247A1.215,1.215,0,0,0,2.156,3.933,1.208,1.208,0,0,0,3.413,5.18h.013A1.215,1.215,0,0,0,4.712,3.933ZM10.149,6c1.5,0,2.615,1.032,2.615,3.252v4.143H10.491V9.528c0-.971-.328-1.635-1.152-1.635a1.259,1.259,0,0,0-1.168.882,1.721,1.721,0,0,0-.072.584v4.036H5.821s.03-6.547,0-7.225H8.1v1.02A2.242,2.242,0,0,1,10.149,6Zm-5.585.169H2.29v7.225H4.564Z"/></svg>