<svg xmlns="http://www.w3.org/2000/svg" width="19.131" height="18.022" viewBox="0 0 19.131 18.022"><defs><style>.a{fill:#4f5a7b;}.a,.b,.d{fill-rule:evenodd;}.b{fill:#fff;}.c,.d{fill:none;stroke:#0acadc;stroke-width:1.6px;}</style></defs><g transform="translate(0 0)"><path class="a" d="M1.636,0h9.818a1.636,1.636,0,0,1,1.636,1.636V13.909a1.636,1.636,0,0,1-1.636,1.636H1.636A1.636,1.636,0,0,1,0,13.909V1.636A1.636,1.636,0,0,1,1.636,0Z" transform="translate(0 0)"/><path class="b" d="M2.059.755,6.177,2.291A3.043,3.043,0,0,1,8.236,4.7V16.969c0,.9-.922,1.292-2.059.868L2.059,16.3A3.043,3.043,0,0,1,0,13.9V1.623C0,.719.922.331,2.059.755Z" transform="translate(0 0.013)"/><line class="c" x2="8.182" transform="translate(9.818 9)"/><path class="d" d="M14.4,5.6l3.273,3.273L14.4,12.145" transform="translate(0.327 0.127)"/></g></svg>