<svg xmlns="http://www.w3.org/2000/svg" width="27" height="25" viewBox="0 0 27 25"><defs><style>.a{fill:#4f5a7b;}.b{fill:#fff;}.c{fill:#0acadc;}</style></defs><path class="a" d="M25.888-3H7.112A1.121,1.121,0,0,1,6-4.11V-18.038a1.121,1.121,0,0,1,1.112-1.11h4.118v-5.223a.627.627,0,0,1,1.061-.454l6.038,5.677h7.56A1.121,1.121,0,0,1,27-18.038V-4.11A1.121,1.121,0,0,1,25.888-3Z" transform="translate(33) rotate(180)"/><path class="b" d="M22.888,0H1.112A1.121,1.121,0,0,0,0,1.11V15.038a1.121,1.121,0,0,0,1.112,1.11H5.229v5.223a.627.627,0,0,0,1.061.454l6.038-5.677h10.56A1.121,1.121,0,0,0,24,15.038V1.11A1.121,1.121,0,0,0,22.888,0Z"/><rect class="c" width="3" height="3" transform="translate(6 6.995)"/><rect class="c" width="3" height="3" transform="translate(11 6.995)"/><rect class="c" width="3" height="3" transform="translate(16 6.995)"/></svg>