<svg xmlns="http://www.w3.org/2000/svg" xmlns:xlink="http://www.w3.org/1999/xlink" width="16" height="16" viewBox="0 0 16 16"><defs><style>.a,.h{fill:#fff;}.a{stroke:#707070;}.b{clip-path:url(#a);}.c{fill:#28a8ea;}.d{fill:#0078d4;}.e{fill:#50d9ff;}.f{opacity:0.2;}.g{opacity:0.1;}</style><clipPath id="a"><circle class="a" cx="8" cy="8" r="8" transform="translate(546 25)"/></clipPath></defs><g class="b" transform="translate(-546 -25)"><g transform="translate(547 27)"><path class="c" d="M17.52,0H14.635a.825.825,0,0,0-.583.242l-6.81,6.81A.825.825,0,0,0,7,7.635v2.885a.825.825,0,0,0,.825.825H10.71a.825.825,0,0,0,.583-.242l6.81-6.81a.825.825,0,0,0,.242-.583V.825A.825.825,0,0,0,17.52,0Z" transform="translate(-5.345 0)"/><path class="d" d="M35.848,29.673H32.962a.825.825,0,0,1-.583-.242L31,28.052V25.475A1.475,1.475,0,0,1,32.475,24h2.577l1.379,1.379a.825.825,0,0,1,.242.583v2.885A.825.825,0,0,1,35.848,29.673Z" transform="translate(-23.672 -18.327)"/><path class="e" d="M7.825,0H10.71a.825.825,0,0,1,.583.242l1.379,1.379V4.2A1.475,1.475,0,0,1,11.2,5.673H8.621L7.241,4.294A.825.825,0,0,1,7,3.71V.825A.825.825,0,0,1,7.825,0Z" transform="translate(-5.345)"/><path class="f" d="M12.2,10.551v6.226a.41.41,0,0,1-.009.094.547.547,0,0,1-.541.456H7V10h4.649a.55.55,0,0,1,.551.551Z" transform="translate(-5.345 -7.636)"/><path class="g" d="M12.436,9.787V15.54a.8.8,0,0,1-.787.787H7V9h4.649a.79.79,0,0,1,.787.787Z" transform="translate(-5.345 -6.873)"/><path class="f" d="M12.2,10.551V16.3a.55.55,0,0,1-.551.551H7V10h4.649a.55.55,0,0,1,.551.551Z" transform="translate(-5.345 -7.636)"/><path class="g" d="M11.963,10.551V16.3a.55.55,0,0,1-.551.551H7V10h4.413a.55.55,0,0,1,.551.551Z" transform="translate(-5.345 -7.636)"/><rect class="d" width="6.618" height="6.618" rx="2.333" transform="translate(0 2.364)"/><path class="h" d="M11.316,17H9.768v.9h1.453v.58H9.768v.94H11.4V20H9.066V16.417h2.25Z" transform="translate(-6.923 -12.536)"/></g></g></svg>