<svg xmlns="http://www.w3.org/2000/svg" xmlns:xlink="http://www.w3.org/1999/xlink" width="16" height="16" viewBox="0 0 16 16"><defs><style>.a,.p{fill:#fff;}.a{stroke:#707070;}.b{clip-path:url(#a);}.c{fill:#0364b8;}.d{fill:#0a2767;}.e{fill:#28a8ea;}.f,.o{fill:#0078d4;}.f,.g,.h,.i{fill-rule:evenodd;}.g{fill:#50d9ff;}.h{fill:none;}.i{fill:#064a8c;}.j{fill:rgba(10,39,103,0.5);}.k{fill:#1490df;}.l{fill:rgba(0,0,0,0.05);}.m{fill:rgba(0,0,0,0.1);}.n{fill:rgba(0,0,0,0.2);}</style><clipPath id="a"><circle class="a" cx="8" cy="8" r="8" transform="translate(735 205)"/></clipPath></defs><g class="b" transform="translate(-735 -205)"><g transform="translate(566 115.994)"><g transform="translate(173.25 90.818)"><path class="c" d="M246.3,103.756h-6.984a.573.573,0,0,0-.57.57v.648l3.936,1.219,4.188-1.219v-.648A.573.573,0,0,0,246.3,103.756Z" transform="translate(-237.934 -103.756)"/><path class="d" d="M234.611,155.3a4.6,4.6,0,0,0,.142-.571.271.271,0,0,0-.135-.234l-.005,0h0l-4.4-2.508a.622.622,0,0,0-.059-.034.61.61,0,0,0-.542,0,.617.617,0,0,0-.059.034l-4.4,2.508h0l-.005,0a.271.271,0,0,0-.135.234,4.6,4.6,0,0,0,.142.571l4.668,3.414Z" transform="translate(-225.004 -149.041)"/><path class="e" d="M276.639,124.379h-2.844l-.821,1.219.821,1.219,2.844,2.437h2.437v-2.437Z" transform="translate(-270.139 -123.16)"/></g><path class="f" d="M238.746,124.379h2.844v2.437h-2.844Z" transform="translate(-64.684 -32.342)"/><path class="g" d="M334.99,124.379h2.437v2.437H334.99Z" transform="translate(-155.241 -32.342)"/><path class="c" d="M244.433,168.064l-2.844-2.437h-2.844v2.437l2.844,2.437,4.4.718Z" transform="translate(-64.684 -71.152)"/><path class="h" d="M238.959,124.379h8.112" transform="translate(-64.884 -32.342)"/><path class="f" d="M286.868,165.627h2.844v2.437h-2.844Z" transform="translate(-109.962 -71.153)"/><path class="i" d="M238.746,206.874h2.844v2.437h-2.844Z" transform="translate(-64.684 -109.962)"/><path class="f" d="M334.99,206.874h2.437v2.437H334.99Z" transform="translate(-155.241 -109.962)"/><g transform="translate(170 92.85)"><path class="j" d="M232.517,201.927l-4.791-3.493.2-.353,4.431,2.523a.215.215,0,0,0,.171,0l4.441-2.531.2.353Z" transform="translate(-224.315 -194.527)"/><path class="k" d="M308.046,200.234l-.005,0h0l-4.4,2.508a.609.609,0,0,1-.593.037l1.533,2.056,3.353.73v0a.609.609,0,0,0,.252-.493V200a.271.271,0,0,1-.135.234Z" transform="translate(-295.182 -196.344)"/><path class="l" d="M308.175,244.366v-.3l-4.055-2.311-.49.279a.608.608,0,0,1-.593.037l1.533,2.056,3.353.73v0a.609.609,0,0,0,.252-.493Z" transform="translate(-295.176 -235.633)"/><path class="m" d="M308.155,248.241l-4.445-2.532-.079.045a.609.609,0,0,1-.593.037l1.533,2.056,3.353.73v0a.61.61,0,0,0,.231-.338Z" transform="translate(-295.176 -239.352)"/><path class="e" d="M225.138,200.24v0h0l-.012-.008A.265.265,0,0,1,225,200v5.079a.611.611,0,0,0,.609.609h8.532a.612.612,0,0,0,.15-.02.26.26,0,0,0,.073-.024.059.059,0,0,0,.024-.008.425.425,0,0,0,.093-.053l.016-.012Z" transform="translate(-221.746 -196.344)"/><path class="m" d="M229.058,145.312v-6.635a.546.546,0,0,0-.542-.542h-2.7v3.029l-.683.389h0l-.005,0a.271.271,0,0,0-.135.234v4.062h3.521A.546.546,0,0,0,229.058,145.312Z" transform="translate(-221.746 -138.136)"/><path class="n" d="M228.652,152.186v-6.635a.546.546,0,0,0-.542-.542h-2.289v2.623l-.683.389h0l-.005,0a.271.271,0,0,0-.135.234v4.468h3.115A.546.546,0,0,0,228.652,152.186Zm0-.812v-5.822a.546.546,0,0,0-.542-.542h-2.289v2.623l-.683.389h0l-.005,0a.271.271,0,0,0-.135.234v3.656h3.115A.546.546,0,0,0,228.652,151.374Zm-.406,0v-5.822a.546.546,0,0,0-.541-.542h-1.883v2.623l-.683.389h0l-.005,0a.271.271,0,0,0-.135.234v3.656H227.7A.546.546,0,0,0,228.246,151.374Z" transform="translate(-221.746 -144.604)"/><path class="o" d="M170.542,145h5.416a.544.544,0,0,1,.542.541v5.416a.544.544,0,0,1-.542.542h-5.416a.544.544,0,0,1-.542-.542v-5.416A.544.544,0,0,1,170.542,145Z" transform="translate(-170 -144.598)"/><path class="p" d="M192.988,166.616a1.7,1.7,0,0,1,.667-.737,2.017,2.017,0,0,1,1.06-.266,1.875,1.875,0,0,1,.981.252,1.681,1.681,0,0,1,.649.7,2.273,2.273,0,0,1,.228,1.035,2.4,2.4,0,0,1-.234,1.083,1.722,1.722,0,0,1-.668.729,1.95,1.95,0,0,1-1.018.259,1.921,1.921,0,0,1-1-.255,1.708,1.708,0,0,1-.657-.705,2.217,2.217,0,0,1-.23-1.023,2.46,2.46,0,0,1,.226-1.077Zm.711,1.73a1.1,1.1,0,0,0,.375.485.979.979,0,0,0,.586.177,1.029,1.029,0,0,0,.626-.182,1.057,1.057,0,0,0,.364-.486,1.88,1.88,0,0,0,.117-.677,2.057,2.057,0,0,0-.11-.685,1.084,1.084,0,0,0-.352-.5.969.969,0,0,0-.62-.192,1.012,1.012,0,0,0-.6.178,1.114,1.114,0,0,0-.383.489,1.941,1.941,0,0,0,0,1.4Z" transform="translate(-191.417 -163.989)"/></g><path class="h" d="M170,90.006h13v13H170Z"/></g></g></svg>