<svg xmlns="http://www.w3.org/2000/svg" width="29.25" height="24.5" viewBox="0 0 29.25 24.5"><defs><style>.a{fill:#4f5a7b;}.b{fill:#fff;}.c{fill:#0acadc;}</style></defs><g transform="translate(0 -0.75)"><path class="a" d="M17,.75A12.25,12.25,0,1,0,29.25,13,12.25,12.25,0,0,0,17,.75Z"/><circle class="b" cx="12" cy="12" r="12" transform="translate(0 1)"/><path class="c" d="M13.023,19.124v1.564a.309.309,0,0,1-.3.313H11.3a.309.309,0,0,1-.3-.313V19.176a3.088,3.088,0,0,1-2.788-2.84.28.28,0,0,1,.3-.313H9.964a.269.269,0,0,1,.271.208,1.017,1.017,0,0,0,.962.834h1.258a1.524,1.524,0,0,0,1.5-1.355,1.477,1.477,0,0,0-1.431-1.668h-.938a3.639,3.639,0,0,1-.617-7.218V5.287a.287.287,0,0,1,.3-.287H12.7a.3.3,0,0,1,.3.287V6.8a3.088,3.088,0,0,1,2.788,2.84.28.28,0,0,1-.3.313H14.035a.268.268,0,0,1-.271-.235,1.017,1.017,0,0,0-.962-.834H11.543a1.524,1.524,0,0,0-1.5,1.355,1.477,1.477,0,0,0,1.431,1.668h1.086a3.573,3.573,0,0,1,3.429,3.987A3.646,3.646,0,0,1,13.023,19.124Z"/></g></svg>