<svg xmlns="http://www.w3.org/2000/svg" width="24" height="21.517" viewBox="0 0 24 21.517"><defs><style>.a{fill:#4f5a7b;}.b{fill:#fff;}.c{fill:#0acadc;}</style></defs><g transform="translate(0 0)"><g transform="translate(0 0)"><path class="a" d="M21.806,3.883c.275-.34.317-.594,0-.912L20.728,1.889a.487.487,0,0,0-.761,0,1.819,1.819,0,0,1-2.03.4,1.737,1.737,0,0,1-1.1-1.634A2.311,2.311,0,0,0,16.456,0H14.469a2.568,2.568,0,0,0-.317.7,1.792,1.792,0,0,1-2.939,1.273.754.754,0,0,0-1.184.064c-.3.3-.592.594-.888.912a.562.562,0,0,0-.021.87A1.791,1.791,0,0,1,9.5,5.814,1.708,1.708,0,0,1,7.808,6.9a.556.556,0,0,0-.592.594c-.021.509-.021,1.04,0,1.549a.567.567,0,0,0,.592.594,1.81,1.81,0,0,1,1.269,3.1.514.514,0,0,0-.021.785c.233.233.444.488.677.721.719.7.719.7,1.565.17a1.784,1.784,0,0,1,2.77,1.294c.085.743.169.828.93.849h.55c1.057,0,1.057,0,1.29-.976a1.783,1.783,0,0,1,2.9-.976.724.724,0,0,0,1.142-.042c.3-.318.613-.637.93-.934a.562.562,0,0,0,0-.87A1.814,1.814,0,0,1,23.1,9.676c.233-.021.444-.255.656-.382V7.3a3.482,3.482,0,0,0-.761-.34A1.813,1.813,0,0,1,21.806,3.883Z" transform="translate(0.248 0)"/><path class="b" d="M17.528,6.26c.33-.407.381-.713,0-1.095l-1.294-1.3a.585.585,0,0,0-.913,0,2.183,2.183,0,0,1-2.436.484,2.084,2.084,0,0,1-1.319-1.961,2.773,2.773,0,0,0-.457-.789H8.723a3.082,3.082,0,0,0-.381.84A2.151,2.151,0,0,1,4.815,3.968a.905.905,0,0,0-1.421.076c-.355.356-.71.713-1.066,1.095A.674.674,0,0,0,2.3,6.184,2.149,2.149,0,0,1,2.76,8.577a2.05,2.05,0,0,1-2.03,1.3.667.667,0,0,0-.71.713c-.025.611-.025,1.248,0,1.859a.681.681,0,0,0,.71.713,2.172,2.172,0,0,1,1.522,3.718.616.616,0,0,0-.025.942c.279.28.533.586.812.866.863.84.863.84,1.878.2A2.141,2.141,0,0,1,8.24,20.443c.1.891.2.993,1.116,1.019h.66c1.269,0,1.269,0,1.548-1.171a2.139,2.139,0,0,1,3.476-1.171.869.869,0,0,0,1.37-.051c.355-.382.736-.764,1.116-1.12a.674.674,0,0,0,0-1.044,2.177,2.177,0,0,1,1.548-3.692c.279-.025.533-.306.787-.458V10.36a4.178,4.178,0,0,0-.913-.407C16.995,9.57,16.284,7.762,17.528,6.26ZM9.915,14.867a3.3,3.3,0,0,1-.051-6.6,3.3,3.3,0,1,1,.051,6.6Z" transform="translate(0 0.055)"/><circle class="c" cx="3.31" cy="3.31" r="3.31" transform="translate(6.621 8.276)"/></g></g></svg>