<svg xmlns="http://www.w3.org/2000/svg" width="15.999" height="13" viewBox="0 0 15.999 13"><defs><style>.a{fill:#363f57;fill-rule:evenodd;opacity:1;}</style></defs><path class="a" d="M14.115,2.056A3.293,3.293,0,0,0,15.558.24a6.563,6.563,0,0,1-2.084.8A3.285,3.285,0,0,0,7.88,4.03,9.319,9.319,0,0,1,1.115.6,3.285,3.285,0,0,0,2.131,4.982a3.265,3.265,0,0,1-1.487-.41c0,.014,0,.027,0,.041A3.284,3.284,0,0,0,3.276,7.831a3.305,3.305,0,0,1-1.482.056,3.286,3.286,0,0,0,3.067,2.279,6.589,6.589,0,0,1-4.077,1.4A6.71,6.71,0,0,1,0,11.526,9.294,9.294,0,0,0,5.032,13a9.274,9.274,0,0,0,9.339-9.338q0-.213-.009-.424A6.686,6.686,0,0,0,16,1.539,6.554,6.554,0,0,1,14.115,2.056Z"/></svg>