<svg xmlns="http://www.w3.org/2000/svg" width="26.826" height="27" viewBox="0 0 26.826 27"><defs><style>.a{fill:#fff;}.b{fill:#0acadc;}.c,.d{fill:#343d56;}.d{fill-rule:evenodd;}</style></defs><g transform="translate(-5 -2)"><g transform="translate(5 1.5)"><path class="a" d="M10.5,11.5A5.5,5.5,0,1,0,5,6,5.5,5.5,0,0,0,10.5,11.5Z"/><path class="a" d="M.866,23.5H21a11.018,11.018,0,0,0-6.482-10.162A10.154,10.154,0,0,0,3.076,15.722,11.2,11.2,0,0,0,0,23.5Z"/></g><g transform="translate(18 15)"><g transform="translate(0.721 0.483)"><ellipse class="b" cx="6.552" cy="6.759" rx="6.552" ry="6.759" transform="translate(0 0)"/><rect class="c" width="1.641" height="7.457" transform="translate(5.894 2.917)"/><path class="d" d="M5.886,2.954H7.543v7.385H5.886Z" transform="translate(13.361 -0.069) rotate(90)"/></g></g></g></svg>