<svg xmlns="http://www.w3.org/2000/svg" width="25" height="17" viewBox="0 0 25 17"><defs><style>.a{fill:#fff;}.b{fill:#1a1f71;}.c{fill:#f7b600;}</style></defs><g transform="translate(-4866 -6460)"><rect class="a" width="25" height="17" rx="1.5" transform="translate(4866 6460)"/><g transform="translate(-9178.764 2351)"><path class="b" d="M11.334,19l-1.193,3.558s-.3-1.5-.333-1.694C9.129,19.314,8.127,19.4,8.127,19.4L9.308,24h1.436l1.985-5Zm1.136,5h1.305l.79-5H13.243ZM21.7,19H20.328l-2.139,5h1.3l.267-.714h1.635l.137.714H22.71Zm-1.588,3.329.71-1.888.372,1.888Zm-3.7-1.872c0-.275.227-.48.875-.48a2.058,2.058,0,0,1,.9.306l.212-1.049A3.982,3.982,0,0,0,17.182,19c-1.371,0-2.079.656-2.079,1.486,0,1.5,1.807,1.3,1.807,2.067,0,.132-.1.438-.858.438a2.792,2.792,0,0,1-1.253-.277l-.227,1.007A3.064,3.064,0,0,0,15.991,24c.935,0,2.233-.7,2.233-1.7C18.223,21.083,16.413,21,16.413,20.456Z" transform="translate(14042.421 4096)"/><path class="b" d="M8.4,21.794l-.439-2.155a.806.806,0,0,0-.715-.467H5.233S7.8,19.929,8.4,21.794Z" transform="translate(14044 4095.907)"/></g><path class="b" d="M1.5,0h22A1.5,1.5,0,0,1,25,1.5V4a0,0,0,0,1,0,0H0A0,0,0,0,1,0,4V1.5A1.5,1.5,0,0,1,1.5,0Z" transform="translate(4866 6460)"/><path class="c" d="M0,0H25a0,0,0,0,1,0,0V2.5A1.5,1.5,0,0,1,23.5,4H1.5A1.5,1.5,0,0,1,0,2.5V0A0,0,0,0,1,0,0Z" transform="translate(4866 6473)"/></g></svg>